<svg id="图层_1" data-name="图层 1" xmlns="http://www.w3.org/2000/svg" viewBox="0 0 1157.7 1158.2"><defs><style>.cls-1{fill:#e32630;}.cls-2{fill:#fbdf36;}.cls-3{fill:none;}</style></defs><title>langzhcn</title><circle class="cls-1" cx="579.33" cy="578.73" r="333"/><polygon class="cls-2" points="551.18 594.94 466.78 537.3 384.47 596.04 410.06 496.88 326.85 434.01 435.44 433.58 466.13 338.94 499.36 432.64 608.35 436.27 524.74 497.82 551.18 594.94"/><polygon class="cls-2" points="663.32 353.57 640.7 358.79 638.72 381.68 625.2 362.03 601.84 366.23 617.91 347.97 605.94 328.17 627.26 337.11 644.1 319.41 642.42 342.96 663.32 353.57"/><polygon class="cls-2" points="698.29 456.99 675.38 453.24 664.87 473.67 659.81 450.36 636.6 445.39 658.4 434.59 654.83 411.73 671.16 428.09 693.46 418.1 682.98 439.24 698.29 456.99"/><polygon class="cls-2" points="678.83 577.11 663.98 559.27 642.65 567.82 654.1 546.89 639.82 527.94 663.37 534.06 675.65 514.45 677.27 537.5 700.66 544.56 678.88 553.67 678.83 577.11"/><polygon class="cls-2" points="659.26 631.47 636.04 631.66 629.15 653.58 620.21 631.46 596.5 630.5 616.15 616.16 608.75 594.23 627.62 607.59 647.9 593.96 641.15 616.58 659.26 631.47"/><rect class="cls-3" width="1157.7" height="1158.2"/></svg>