<svg id="图层_1" data-name="图层 1" xmlns="http://www.w3.org/2000/svg" viewBox="0 0 1023.19 886"><defs><style>.cls-1{fill:#222c2f;stroke:#566c73;}.cls-1,.cls-2,.cls-3{stroke-width:20px;}.cls-2,.cls-3{fill:none;stroke:#fff7a2;}.cls-2{stroke-miterlimit:10;}</style></defs><title>offload</title><polygon class="cls-1" points="761.65 876 261.55 876 11.55 443 261.55 10 761.65 10 1011.65 443 761.65 876"/><polygon class="cls-2" points="625.1 234.5 720.1 330.5 720.1 556.5 625.1 651.5 399.1 651.5 303.1 556.5 303.1 330.5 399.1 234.5 625.1 234.5"/><line class="cls-3" x1="433.52" y1="305" x2="589.52" y2="305"/><line class="cls-3" x1="433.52" y1="357" x2="589.52" y2="357"/><line class="cls-3" x1="433.52" y1="409" x2="589.52" y2="409"/><line class="cls-3" x1="385.02" y1="347.5" x2="385.02" y2="411.5"/><polyline class="cls-3" points="385.02 450.5 385.02 512.5 433.02 542.5"/><line class="cls-3" x1="638.02" y1="347.5" x2="638.02" y2="411.5"/><polyline class="cls-3" points="638.02 450.5 638.02 512.5 590.02 542.5"/></svg>