<svg id="图层_1" data-name="图层 1" xmlns="http://www.w3.org/2000/svg" viewBox="0 0 1023.11 886.05"><defs><style>.cls-1{fill:#222c2f;stroke:#566c73;}.cls-1,.cls-2{stroke-width:20px;}.cls-2{fill:none;stroke:#fff7a2;stroke-miterlimit:10;}</style></defs><title>shipmentcomputer</title><polygon class="cls-1" points="761.57 876.05 261.55 876.05 11.55 443.02 261.55 10 761.57 10 1011.57 443.02 761.57 876.05"/><polygon class="cls-2" points="625.06 234.53 720.06 330.52 720.06 556.52 625.06 651.52 399.06 651.52 303.06 556.52 303.06 330.52 399.06 234.53 625.06 234.53"/><rect class="cls-2" x="411.06" y="342.52" width="202" height="202"/><rect class="cls-2" x="464.06" y="395.52" width="95" height="95"/><line class="cls-2" x1="410.06" y1="399.52" x2="359.06" y2="399.76"/><line class="cls-2" x1="410.06" y1="445.52" x2="359.06" y2="445.76"/><line class="cls-2" x1="410.06" y1="490.52" x2="359.06" y2="490.76"/><line class="cls-2" x1="669.06" y1="399.52" x2="618.06" y2="399.76"/><line class="cls-2" x1="669.06" y1="445.52" x2="618.06" y2="445.76"/><line class="cls-2" x1="669.06" y1="491.52" x2="618.06" y2="491.76"/><line class="cls-2" x1="512.06" y1="294.52" x2="512.31" y2="344.52"/><line class="cls-2" x1="464.06" y1="294.52" x2="464.31" y2="344.52"/><line class="cls-2" x1="559.06" y1="294.52" x2="559.31" y2="344.52"/><line class="cls-2" x1="512.06" y1="546.52" x2="512.31" y2="596.52"/><line class="cls-2" x1="464.06" y1="546.52" x2="464.31" y2="596.52"/><line class="cls-2" x1="559.06" y1="546.52" x2="559.31" y2="596.52"/></svg>