<svg id="图层_1" data-name="图层 1" xmlns="http://www.w3.org/2000/svg" viewBox="0 0 1023.19 886"><defs><style>.cls-1{fill:#222c2f;stroke:#566c73;}.cls-1,.cls-2,.cls-3,.cls-4{stroke-width:20px;}.cls-2,.cls-3,.cls-4{fill:none;stroke:#fff7a2;}.cls-2{stroke-miterlimit:10;}.cls-3{stroke-linejoin:bevel;}</style></defs><title>shipmentdrone</title><polygon class="cls-1" points="761.65 876 261.55 876 11.55 443 261.55 10 761.65 10 1011.65 443 761.65 876"/><polygon class="cls-2" points="625.1 234.5 720.1 330.5 720.1 556.5 625.1 651.5 399.1 651.5 303.1 556.5 303.1 330.5 399.1 234.5 625.1 234.5"/><polyline class="cls-3" points="445.89 545.74 410.02 584 410.02 480.03"/><polyline class="cls-4" points="579.3 546.97 554.02 520 554.02 485 512.02 485 470.02 485 470.02 520 445.89 545.74"/><polyline class="cls-3" points="614.02 477.61 614.02 584 579.3 546.97"/><polyline class="cls-4" points="410.02 480.03 410.02 398 451.02 361 451.02 299 475.02 299 475.02 313 512.02 313 549.02 313 549.02 299 573.02 299 573.02 361 614.02 398 614.02 477.61"/></svg>