<svg id="图层_1" data-name="图层 1" xmlns="http://www.w3.org/2000/svg" viewBox="0 0 1157.7 1158.2"><defs><style>.cls-1{fill:#03dac6;}.cls-2{fill:none;}</style></defs><title>sidemenu</title><path class="cls-1" d="M370.85,455.1h416a16,16,0,0,0,16-16v-40a16,16,0,0,0-16-16h-416a16,16,0,0,0-16,16v40A16,16,0,0,0,370.85,455.1Zm0,160h416a16,16,0,0,0,16-16v-40a16,16,0,0,0-16-16h-416a16,16,0,0,0-16,16v40A16,16,0,0,0,370.85,615.1Zm0,160h416a16,16,0,0,0,16-16v-40a16,16,0,0,0-16-16h-416a16,16,0,0,0-16,16v40A16,16,0,0,0,370.85,775.1Z"/><rect class="cls-2" width="1157.7" height="1158.2"/></svg>