<svg id="图层_1" data-name="图层 1" xmlns="http://www.w3.org/2000/svg" viewBox="0 0 1023.19 886"><defs><style>.cls-1{fill:#222c2f;stroke:#566c73;}.cls-1,.cls-2,.cls-3{stroke-width:20px;}.cls-2{fill:none;stroke-miterlimit:10;}.cls-2,.cls-3{stroke:#fff7a2;}.cls-3{fill:#fff7a2;stroke-linejoin:bevel;}</style></defs><title>tradeburst</title><polygon class="cls-1" points="761.65 876 261.55 876 11.55 443 261.55 10 761.65 10 1011.65 443 761.65 876"/><polygon class="cls-2" points="625.1 234.5 720.1 330.5 720.1 556.5 625.1 651.5 399.1 651.5 303.1 556.5 303.1 330.5 399.1 234.5 625.1 234.5"/><polygon class="cls-3" points="511.6 342 562.03 306 461.16 306 511.6 342"/><polygon class="cls-3" points="511.6 544 461.16 580 562.03 580 511.6 544"/><polygon class="cls-3" points="611.02 443 647.02 493.44 647.02 392.56 611.02 443"/><polygon class="cls-3" points="408.02 442 372.02 492.44 372.02 391.56 408.02 442"/></svg>